<svg width="102" height="102" viewBox="0 0 102 102" fill="none" xmlns="http://www.w3.org/2000/svg">
<g clip-path="url(#clip0_14_502)">
<path d="M9.4856 25.296C9.4856 23.5496 10.9013 22.134 12.6476 22.134H67.4555C69.2018 22.134 70.6175 23.5496 70.6175 25.296C70.6175 27.0423 69.2018 28.458 67.4555 28.458H12.6476C10.9013 28.458 9.4856 27.0423 9.4856 25.296Z" fill="white"/>
<path d="M54.8075 11.596C51.8951 11.596 49.5375 13.9537 49.5375 16.866V33.73C49.5375 36.6424 51.8951 39 54.8075 39H80.1034C83.0158 39 85.3734 36.6424 85.3734 33.73V16.866C85.3734 13.9537 83.0158 11.596 80.1034 11.596H54.8075ZM43.2135 16.866C43.2135 10.461 48.4025 5.27205 54.8075 5.27205H80.1034C86.5084 5.27205 91.6974 10.461 91.6974 16.866V33.73C91.6974 40.135 86.5084 45.324 80.1034 45.324H54.8075C48.4025 45.324 43.2135 40.135 43.2135 33.73V16.866Z" fill="white"/>
<path d="M30.5656 75.8879C30.5656 74.1415 31.9812 72.7259 33.7276 72.7259H88.5355C90.2818 72.7259 91.6975 74.1415 91.6975 75.8879C91.6975 77.6342 90.2818 79.0499 88.5355 79.0499H33.7276C31.9812 79.0499 30.5656 77.6342 30.5656 75.8879Z" fill="white"/>
<path d="M77.8676 65.22C79.1025 63.9852 81.1045 63.9852 82.3394 65.22L90.7714 73.652C92.0062 74.8868 92.0062 76.8889 90.7714 78.1237L82.3394 86.5557C81.1045 87.7906 79.1025 87.7906 77.8676 86.5557C76.6328 85.3209 76.6328 83.3188 77.8676 82.084L84.0638 75.8879L77.8676 69.6917C76.6328 68.4569 76.6328 66.4549 77.8676 65.22Z" fill="white"/>
<path d="M21.0796 62.188C18.1672 62.188 15.8096 64.5456 15.8096 67.4579V84.3219C15.8096 87.2343 18.1672 89.5919 21.0796 89.5919H46.3755C49.2879 89.5919 51.6455 87.2343 51.6455 84.3219V67.4579C51.6455 64.5456 49.2879 62.188 46.3755 62.188H21.0796ZM9.4856 67.4579C9.4856 61.053 14.6746 55.864 21.0796 55.864H46.3755C52.7805 55.864 57.9695 61.053 57.9695 67.4579V84.3219C57.9695 90.7269 52.7805 95.9159 46.3755 95.9159H21.0796C14.6746 95.9159 9.4856 90.7269 9.4856 84.3219V67.4579Z" fill="white"/>
<path d="M23.3154 14.6281C24.5503 15.8629 24.5503 17.865 23.3154 19.0998L17.1193 25.296L23.3154 31.4921C24.5503 32.7269 24.5503 34.729 23.3154 35.9638C22.0806 37.1986 20.0785 37.1986 18.8437 35.9638L10.4117 27.5318C9.17689 26.297 9.17689 24.2949 10.4117 23.0601L18.8437 14.6281C20.0785 13.3933 22.0806 13.3933 23.3154 14.6281Z" fill="white"/>
<path d="M9.4856 25.296C9.4856 23.5496 10.9013 22.134 12.6476 22.134H67.4555C69.2018 22.134 70.6175 23.5496 70.6175 25.296C70.6175 27.0423 69.2018 28.458 67.4555 28.458H12.6476C10.9013 28.458 9.4856 27.0423 9.4856 25.296Z" fill="#00C2B3"/>
<path d="M30.5656 75.8879C30.5656 74.1415 31.9812 72.7259 33.7276 72.7259H88.5355C90.2818 72.7259 91.6974 74.1415 91.6974 75.8879C91.6974 77.6342 90.2818 79.0499 88.5355 79.0499H33.7276C31.9812 79.0499 30.5656 77.6342 30.5656 75.8879Z" fill="#00C2B3"/>
<path d="M77.8676 65.22C79.1025 63.9852 81.1045 63.9852 82.3394 65.22L90.7714 73.652C92.0062 74.8868 92.0062 76.8889 90.7714 78.1237L82.3394 86.5557C81.1045 87.7906 79.1025 87.7906 77.8676 86.5557C76.6328 85.3209 76.6328 83.3188 77.8676 82.084L84.0638 75.8879L77.8676 69.6917C76.6328 68.4569 76.6328 66.4549 77.8676 65.22Z" fill="#00C2B3"/>
<path d="M23.3154 14.6281C24.5503 15.8629 24.5503 17.865 23.3154 19.0998L17.1193 25.296L23.3154 31.4921C24.5503 32.7269 24.5503 34.729 23.3154 35.9638C22.0806 37.1986 20.0785 37.1986 18.8437 35.9638L10.4117 27.5318C9.17689 26.297 9.17689 24.2949 10.4117 23.0601L18.8437 14.6281C20.0785 13.3933 22.0806 13.3933 23.3154 14.6281Z" fill="#00C2B3"/>
</g>
<defs>
<clipPath id="clip0_14_502">
<rect width="101.184" height="101.184" fill="white"/>
</clipPath>
</defs>
</svg>
